<svg width="100" height="100" viewBox="0 0 100 100" fill="none" xmlns="http://www.w3.org/2000/svg">
<circle cx="50" cy="50" r="47" transform="rotate(-90 50 50)" fill="#FAF4FF" stroke="#BEA9D2" stroke-width="6"/>
<g filter="url(#filter0_d_126_102)">
<path d="M52.048 73.704C48.72 73.704 45.6267 73.128 42.768 71.976C39.9093 70.7813 37.392 69.1387 35.216 67.048C33.04 64.9147 31.3333 62.4613 30.096 59.688C28.9013 56.872 28.304 53.8427 28.304 50.6C28.304 47.3573 28.9013 44.3493 30.096 41.576C31.3333 38.76 33.0187 36.3067 35.152 34.216C37.2853 32.0827 39.7813 30.44 42.64 29.288C45.5413 28.0933 48.6347 27.496 51.92 27.496C55.632 27.496 59.1307 28.2427 62.416 29.736C65.7013 31.1867 68.4107 33.2347 70.544 35.88L64.08 41.832C62.544 39.912 60.7307 38.4613 58.64 37.48C56.5493 36.4987 54.3093 36.008 51.92 36.008C49.9147 36.008 48.0587 36.392 46.352 37.16C44.6453 37.8853 43.152 38.9093 41.872 40.232C40.592 41.512 39.5893 43.048 38.864 44.84C38.1813 46.5893 37.84 48.5093 37.84 50.6C37.84 52.6907 38.2027 54.632 38.928 56.424C39.6533 58.216 40.656 59.7733 41.936 61.096C43.2587 62.376 44.7733 63.4 46.48 64.168C48.2293 64.8933 50.128 65.256 52.176 65.256C54.3093 65.256 56.2293 64.872 57.936 64.104C59.6427 63.2933 61.072 62.184 62.224 60.776C63.4187 59.3253 64.208 57.704 64.592 55.912H51.344V47.848H74.512V50.664C74.512 53.992 73.936 57.064 72.784 59.88C71.6747 62.6533 70.1173 65.0853 68.112 67.176C66.1067 69.224 63.7387 70.824 61.008 71.976C58.2773 73.128 55.2907 73.704 52.048 73.704Z" fill="#481D72"/>
</g>
<defs>
<filter id="filter0_d_126_102" x="24.304" y="24.496" width="60.208" height="60.208" filterUnits="userSpaceOnUse" color-interpolation-filters="sRGB">
<feFlood flood-opacity="0" result="BackgroundImageFix"/>
<feColorMatrix in="SourceAlpha" type="matrix" values="0 0 0 0 0 0 0 0 0 0 0 0 0 0 0 0 0 0 127 0" result="hardAlpha"/>
<feOffset dx="3" dy="4"/>
<feGaussianBlur stdDeviation="3.5"/>
<feComposite in2="hardAlpha" operator="out"/>
<feColorMatrix type="matrix" values="0 0 0 0 0 0 0 0 0 0 0 0 0 0 0 0 0 0 0.25 0"/>
<feBlend mode="normal" in2="BackgroundImageFix" result="effect1_dropShadow_126_102"/>
<feBlend mode="normal" in="SourceGraphic" in2="effect1_dropShadow_126_102" result="shape"/>
</filter>
</defs>
</svg>
